<?xml version="1.0" encoding="utf-8"?>
<!-- Generator: Adobe Illustrator 23.0.4, SVG Export Plug-In . SVG Version: 6.00 Build 0)  -->
<svg version="1.1" id="twitter" xmlns="http://www.w3.org/2000/svg" xmlns:xlink="http://www.w3.org/1999/xlink" x="0px" y="0px"
	 width="100px" height="100px" viewBox="0 0 100 100" style="enable-background:new 0 0 100 100;" xml:space="preserve">
<style type="text/css">
	.st0{fill:#0399FF;}
	.st1{fill:#FFFFFF;}
</style>
<circle class="st0" cx="50" cy="50" r="48"/>
<path class="st1" d="M74.8,27.1H25.2c-3.2,0-5.8,2.5-5.8,5.8v34.4c0,3.2,2.5,5.8,5.8,5.8h49.6c3.2,0,5.8-2.5,5.8-5.8V32.8
	C80.6,29.7,78,27.1,74.8,27.1z M74.8,32.8v4.9c-2.6,2.1-6.9,5.6-16.1,12.7c-2,1.6-6,5.5-8.7,5.5s-6.7-3.7-8.7-5.4
	c-9.1-7.1-13.4-10.6-16.1-12.7v-4.9L74.8,32.8L74.8,32.8z M25.2,67.2V45c2.7,2.1,6.6,5.3,12.5,9.9c2.6,2.1,7.1,6.5,12.3,6.5
	s9.7-4.5,12.3-6.5c5.9-4.6,9.8-7.7,12.5-9.9v22.2C74.8,67.2,25.2,67.2,25.2,67.2z"/>
</svg>
