<?xml version="1.0" encoding="utf-8"?>
<!-- Generator: Adobe Illustrator 23.0.4, SVG Export Plug-In . SVG Version: 6.00 Build 0)  -->
<svg version="1.1" id="twitter" xmlns="http://www.w3.org/2000/svg" xmlns:xlink="http://www.w3.org/1999/xlink" x="0px" y="0px"
	 width="100px" height="100px" viewBox="0 0 100 100" style="enable-background:new 0 0 100 100;" xml:space="preserve">
<style type="text/css">
	.st0{fill:#0399FF;}
	.st1{fill:#FFFFFF;}
</style>
<circle class="st0" cx="50" cy="50" r="48"/>
<path class="st1" d="M50.1,33.9c-1.4,0-3.1,0.3-4.4,0.8c0.7,1.2,1.1,2.5,1.1,4c0,4.4-3.6,8-8,8c-1.4,0-2.8-0.3-4-1.1
	c-2.4,8.6,2.4,17.5,11,19.9c8.6,2.4,17.5-2.4,19.9-11c2.4-8.6-2.4-17.5-11-19.9C53.2,34.2,51.5,33.9,50.1,33.9z M50.1,70.8
	c-14.2,0-27.2-7.9-34.3-20.8c7-12.9,20-20.8,34.3-20.8S77.3,37.1,84.4,50C77.3,62.9,64.3,70.8,50.1,70.8z"/>
</svg>
