<svg enable-background="new 0 0 512 512" height="512" viewBox="0 0 512 512" width="512" xmlns="http://www.w3.org/2000/svg"><path d="m505.1 19.3c-1.3-6.2-6.2-11-12.4-12.3-32.6-7-58.1-7-83.6-7-103.7 0-166.1 55.1-212.8 128h-101.4c-18.1 0-34.7 10.3-42.9 26.5l-49.4 98.8c-5.9 11.9-1.1 26.3 10.8 32.2 3.3 1.7 7 2.5 10.7 2.5h92.6l-10.6 21.4c-6.1 12.3-3.6 27 6.2 36.6l53.8 53.7c6 6 14.1 9.4 22.6 9.4 4.9 0 9.6-1.1 14-3.3l21.4-10.6v92.8c0 13.2 10.8 24 24 24 3.7 0 7.3-.9 10.6-2.5l98.7-49.4c16.3-8.1 26.5-24.7 26.5-42.9v-101.5c72.7-46.8 128.1-109.5 128.1-212.7.1-25.5.1-51-6.9-83.7zm-377.1 236.7h-91l43.6-87.2c2.7-5.4 8.2-8.8 14.3-8.8h85.1c-13.9 28.1-31.7 64-47.6 96zm223.9 161.2c0 6.1-3.4 11.6-8.9 14.3l-87 43.5v-95.5c32-15.8 67.8-33.6 95.9-47.5zm14.6-128.3c-39.5 19.8-135.9 67.4-177.9 88.2l-53.8-53.5c20.9-42.2 68.5-138.6 88.2-178.2 50.2-78.4 107.7-113.4 186.2-113.4 21.5 0 42 0 66.6 4.3 4.3 24.9 4.3 45.2 4.2 66.7 0 78.1-35 135.5-113.5 185.9zm1.5-208.9c-35.3 0-64 28.7-64 64s28.7 64 64 64 64-28.7 64-64-28.7-64-64-64zm0 96c-17.7 0-32-14.3-32-32s14.3-32 32-32 32 14.3 32 32-14.3 32-32 32z" fill="#0399ff"/></svg>