<svg enable-background="new 0 0 384 512" height="512" viewBox="0 0 384 512" width="384" xmlns="http://www.w3.org/2000/svg"><path d="m192 95.9c-52.9 0-96 43.1-96 96s43.1 96 96 96 96-43.1 96-96-43.1-95.9-96-96zm0 160c-35.3 0-64-28.7-64-64s28.7-64 64-64 64 28.7 64 64-28.7 64-64 64zm175.6 16.4c14.1-14.3 19.6-35.3 14.5-54.9-6.4-24.2-6.4-20.4 0-44.7 5.1-19.5-.4-40.5-14.5-54.9-17.6-17.7-15.6-14.7-21.9-38.6-5.1-19.5-20.3-35-39.7-40.2-23.3-6.3-20.6-4.6-37.8-22.2-14.2-14.5-35.1-20.1-54.5-14.9-23.5 6.5-20.1 6.4-43.5 0-19.2-5.3-40.2.4-54.4 14.9-17.4 17.7-14.3 15.8-37.8 22.2-19.4 5.3-34.6 20.7-39.8 40.3-6.4 24-4.4 20.9-21.9 38.6-14 14.3-19.5 35.4-14.4 54.9 6.4 24.2 6.4 20.4 0 44.7-5.1 19.5.4 40.5 14.5 54.9 17.6 17.7 15.6 14.6 21.9 38.5 2 7.6 5.9 14.4 10.6 20.4l-47.7 117.4c-4.3 10.6 3.5 22 14.8 22 .5 0-2.9.1 53.3-2l36.2 38.3c3.2 3.4 7.4 5 11.6 5 6.2 0 12.2-3.5 14.9-10l52.4-129c4.9-1.7 10.2-1.7 15.1 0l52.5 129c2.6 6.4 8.7 10 14.9 10 4.2 0 8.4-1.6 11.6-5l36.2-38.3c56.2 2.1 52.8 2 53.3 2 11.3 0 19.1-11.5 14.8-22l-47.7-117.4c4.7-6 8.6-12.7 10.6-20.4 6.4-24 4.4-20.8 21.9-38.6zm-255.9 194.7c-22.6-23.9-16.6-17.5-29.1-30.8-18.3.7-9.4.4-42.4 1.6l35.5-87.5c.8.3 1.5.8 2.3 1 21.9 5.9 20.5 4.6 31.6 15.9 9.9 10.1 22.8 15.6 36 16.5zm232.1-29.2c-32.9-1.3-24.1-.9-42.4-1.6-12.6 13.3-6.5 6.9-29.1 30.8l-33.9-83.4c13.2-.9 26.1-6.2 36-16.4 11.4-11.6 9.8-10.2 31.6-15.9.8-.2 1.5-.7 2.3-1zm-29-135c-2.2 8.6-8.8 15.3-17.2 17.6-23.6 6.2-28.4 6.5-46 24.4-8 8.1-20.2 9.6-29.8 3.5-18.1-11.4-41.6-11.5-59.7 0-9.5 6-21.8 4.6-29.8-3.5-17.4-17.7-22.1-18-46-24.4-8.4-2.3-15-9-17.2-17.6-8.1-30.6-7.5-30.2-30-52.9-6.2-6.3-8.6-15.6-6.3-24.3 8.1-30.5 8.2-30.5 0-60.9-2.3-8.7.2-18 6.3-24.3 22.4-22.7 21.9-22.1 30-52.9 2.2-8.6 8.8-15.3 17.2-17.6 30.8-8.4 29.7-7.8 52.1-30.6 5.2-5.3 13.8-9 23.3-6.4 30.5 8.4 29.9 8.4 60.3 0 8.2-2.3 17.2.2 23.3 6.4 22.3 22.9 21.9 22.4 52.2 30.7 8.3 2.3 14.9 9 17.2 17.6 8.1 30.6 7.5 30.2 30 52.9 6.2 6.3 8.6 15.6 6.3 24.3-8.2 30.5-8.2 30.5 0 60.9 2.3 8.7-.2 18-6.3 24.3-22.3 22.6-21.8 22-29.9 52.8z" fill="#0399ff"/></svg>