<svg enable-background="new 0 0 512 512" height="512" viewBox="0 0 512 512" width="512" xmlns="http://www.w3.org/2000/svg"><path d="m-.1 240c0 114.9 114.6 208 256 208 32.8 0 64-5.2 92.9-14.3 29.1 20.6 77.6 46.3 139.1 46.3 9.6 0 18.3-5.7 22.1-14.5s2-19-4.6-26c-.5-.4-31.5-33.8-46.4-73.2 33-35.1 52.9-78.7 52.9-126.3 0-114.9-114.6-208-256-208s-256 93.1-256 208zm32 0c0-97 100.5-176 224-176s224 79 224 176c0 37.6-15.3 73.7-44.2 104.3l-13.7 14.6 7.1 18.7c11 29.2 28.8 54.5 40.8 69.6-44.1-4.3-79.6-23.3-102.6-39.6l-13-9.2-15.2 4.8c-26.9 8.5-54.9 12.8-83.2 12.8-123.5 0-224-79-224-176zm148.2 45.3c-5.8-6.7-15.9-7.5-22.6-1.8-6.7 5.8-7.6 15.9-1.8 22.6 24.9 29.2 61.4 45.9 100.2 45.9s75.3-16.7 100.1-45.8c5.7-6.8 5-16.8-1.8-22.6-6.7-5.6-16.8-4.9-22.5 1.8-18.8 22-46.4 34.6-75.8 34.6s-57-12.6-75.8-34.7zm163.8-93.3c0-13.3-10.7-24-24-24s-24 10.7-24 24 10.7 24 24 24 24-10.7 24-24zm-128 0c0-13.3-10.7-24-24-24s-24 10.7-24 24 10.7 24 24 24 24-10.7 24-24z" fill="#0399ff"/></svg>